<svg width="80" height="313" viewBox="0 0 80 313" fill="none" xmlns="http://www.w3.org/2000/svg">
<path d="M50.0875 261.994C49.1114 266.22 45.2122 269.47 40.9859 269.47C36.7622 269.47 30.2617 266.869 30.2617 260.369C30.2617 259.625 30.3118 258.939 30.4068 258.308C31.1191 253.422 34.3087 251.694 35.4615 249.969C35.9602 249.223 36.195 247.785 36.2952 246.291C36.3743 245.16 36.3743 243.994 36.3506 243.078C36.3269 242.049 36.2741 241.334 36.2741 241.334L44.8877 239.242C44.8877 239.242 44.5025 240.614 44.2704 242.474C43.9512 245.044 43.9274 248.544 45.6238 250.618C48.5495 254.193 51.061 257.768 50.0875 261.994Z" fill="#AF842E"/>
<g opacity="0.41">
<path d="M50.0875 261.992C49.1114 266.219 45.2122 269.469 40.9859 269.469C36.7622 269.469 30.2617 266.868 30.2617 260.367C30.2617 259.623 30.3118 258.937 30.4068 258.307C30.8157 259.294 33.4196 264.865 39.2368 263.636C45.6132 262.29 46.7819 257.529 45.7926 254.835C44.8059 252.141 41.3921 251.062 40.7643 248.638C40.2604 246.702 37.8095 246.253 36.2952 246.29C36.3743 245.158 36.3743 243.992 36.3506 243.077L43.6372 242.082L44.2704 242.473C43.9512 245.042 43.9274 248.543 45.6238 250.617C48.5495 254.191 51.061 257.766 50.0875 261.992Z" fill="#FFA900"/>
</g>
<path d="M36.0307 259.609C36.0202 259.66 36.0096 259.712 35.9991 259.765C35.9964 259.749 35.9991 259.731 36.0043 259.71C36.0123 259.675 36.0228 259.644 36.0307 259.609Z" fill="#B3975F"/>
<path d="M45.2225 259.107C45.1848 258.841 45.0394 258.538 44.9748 258.313C44.8529 257.887 44.7318 257.462 44.611 257.036C43.6834 253.765 42.7914 250.483 41.9517 247.188C41.713 246.25 41.4782 245.312 41.2484 244.372C41.1254 243.87 41.1634 242.693 40.5669 242.471C39.7649 242.173 39.7135 243.936 39.6072 244.367C39.4259 245.104 39.2426 245.841 39.0587 246.577C38.687 248.065 38.3129 249.553 37.9475 251.042C37.5856 252.519 37.232 253.997 36.8983 255.48C36.7287 256.234 36.5641 256.989 36.406 257.746C36.2617 258.436 35.9889 259.22 35.9694 259.924C35.9639 260.122 35.986 260.402 36.2812 260.322C36.5371 260.253 36.6036 259.609 36.6669 259.396C36.8403 258.812 37.0271 257.457 37.9755 257.823C37.6402 258.502 37.1128 259.633 37.6916 260.339C38.0114 260.73 38.602 260.767 39.0136 260.506C39.4866 260.206 39.5972 259.633 39.5937 259.111C39.5898 258.496 39.3948 257.955 38.9817 257.507C39.4257 257.074 40.6759 256.631 41.1703 257.171C40.6194 257.853 40.1311 258.892 40.5361 259.791C41.0384 260.905 42.1472 259.81 42.3292 259.079C42.4928 258.422 42.2868 257.798 42.0177 257.202C42.3023 257.016 42.701 256.963 43.0347 257.024C43.4502 257.1 43.5536 257.254 43.6628 257.646C43.8053 258.156 43.9011 259.373 44.3548 259.691C44.6809 259.919 45.165 259.704 45.2252 259.32C45.2352 259.253 45.2331 259.182 45.2225 259.107ZM39.0146 259.569C38.6242 260.79 38.0174 259.78 38.0781 259.086C38.1098 258.732 38.2469 258.384 38.4527 258.075C38.888 258.45 39.1597 259.112 39.0146 259.569ZM41.0276 259.511C40.8751 259.191 40.8975 258.855 40.9959 258.5C41.0935 258.123 41.2624 257.812 41.5051 257.566C41.5262 257.603 41.542 257.64 41.5578 257.68C41.9588 258.278 41.8855 259.618 41.0276 259.511ZM41.6581 256.801C41.3521 256.556 40.9379 256.45 40.3759 256.477C39.6267 256.514 38.9698 256.783 38.4633 257.252C38.3789 257.234 38.2918 257.223 38.1968 257.218C37.8037 257.199 37.4792 257.308 37.2128 257.495C38.3894 253.298 39.3708 249.029 40.4129 244.797C40.2731 244.196 40.1359 243.597 39.9987 242.996H40.8587C40.7084 243.594 40.5606 244.196 40.4129 244.797C41.3257 248.715 42.2939 252.614 43.3492 256.495C42.7846 256.332 42.1699 256.482 41.6581 256.801Z" fill="white"/>
<path d="M32.1367 242.188V219.867C32.1367 218.542 33.2102 217.469 34.5346 217.469H45.9903C47.3146 217.469 48.3881 218.542 48.3881 219.867V242.082C48.3881 243.475 47.2073 244.573 45.818 244.474C43.6655 244.32 40.0702 244.229 34.6952 244.58C33.3112 244.671 32.1367 243.575 32.1367 242.188Z" fill="#6B6259"/>
<path d="M43.5131 204.138C43.4867 204.452 43.4419 204.734 43.3812 204.987C42.5765 208.375 39.0045 206.414 37.0918 205.072C36.361 204.56 35.873 204.138 35.873 204.138C35.873 204.138 35.9178 203.191 36.0392 201.621C36.3241 197.883 37.0364 190.614 38.5771 184.251C38.8435 183.154 39.1337 182.084 39.4503 181.062H41.3999C41.3999 181.062 44.1753 196.458 43.5131 204.138Z" fill="#B98D00"/>
<g opacity="0.32">
<path d="M43.5131 204.138C43.4867 204.452 43.4419 204.734 43.3812 204.987L41.0332 205.71L37.0918 205.072C36.361 204.56 35.873 204.138 35.873 204.138C35.873 204.138 35.9178 203.191 36.0392 201.621C37.076 201.212 38.9754 200.096 40.4027 197.178C42.4262 193.044 40.9171 185.892 38.5771 184.251C38.8435 183.154 39.1337 182.084 39.4503 181.062H41.3999C41.3999 181.062 44.1753 196.458 43.5131 204.138Z" fill="#B98D00"/>
</g>
<path d="M41.415 0.546875H39.4648V181.259H41.415V0.546875Z" fill="#6B6259"/>
<path d="M59.9248 224.29H20.5977L22.1858 221.322L24.8082 216.417C25.8529 214.46 27.8922 213.238 30.1109 213.238H50.4116C52.6303 213.238 54.6696 214.46 55.7169 216.417L59.9248 224.29Z" fill="#6B6259"/>
<path d="M48.7132 215.517L43.0596 215.625L31.8105 215.844L32.7496 213.242L35.4353 205.805L36.0368 204.141H43.5134L47.6737 213.242L48.7132 215.517Z" fill="#6B6259"/>
<g opacity="0.14">
<path d="M59.9248 224.294H20.5977L22.1858 221.326C23.6922 220.189 26.5678 218.45 30.9736 217.477C36.5111 216.255 40.7242 216.53 43.059 215.625C43.6394 215.403 44.1037 215.105 44.444 214.693C44.7342 214.343 44.8661 213.839 44.8503 213.242C44.7817 210.333 41.207 205.28 35.4637 205.803C35.4532 205.803 35.4426 205.805 35.4347 205.805L36.0362 204.141H43.5128L47.6731 213.242H50.4116C52.6303 213.242 54.6696 214.464 55.7169 216.421L59.9248 224.294Z" fill="#6B6259"/>
</g>
<path d="M47.2671 0V11.8744C47.2671 13.5734 45.8899 14.9505 44.191 14.9505H36.6906C34.9943 14.9505 33.6172 13.5734 33.6172 11.8744V0H47.2671Z" fill="#6B6259"/>
<g opacity="0.14">
<path d="M47.2671 1V12.8744C47.2671 14.5734 45.8899 15.9505 44.191 15.9505H36.6906C34.9943 15.9505 33.6172 14.5734 33.6172 12.8744V11.7796C34.2029 12.0302 36.7487 12.9324 40.0438 11.3627C42.4682 10.2072 42.3337 4.75148 41.9274 1H47.2671Z" fill="#6B6259"/>
</g>
<g opacity="0.49">
<path d="M40 297.066C61.5391 297.066 79 279.606 79 258.066C79 236.527 61.5391 219.066 40 219.066C18.4609 219.066 1 236.527 1 258.066C1 279.606 18.4609 297.066 40 297.066Z" fill="url(#paint0_linear_11436_60)"/>
<path d="M40 297.066C61.5391 297.066 79 279.606 79 258.066C79 236.527 61.5391 219.066 40 219.066C18.4609 219.066 1 236.527 1 258.066C1 279.606 18.4609 297.066 40 297.066Z" fill="url(#paint1_linear_11436_60)"/>
<path d="M40 297.066C61.5391 297.066 79 279.606 79 258.066C79 236.527 61.5391 219.066 40 219.066C18.4609 219.066 1 236.527 1 258.066C1 279.606 18.4609 297.066 40 297.066Z" fill="url(#paint2_linear_11436_60)" fill-opacity="0.3"/>
</g>
<g opacity="0.44">
<path d="M65.8516 245.202C65.176 249.336 67.0103 253.577 66.6061 260.448C66.2705 266.155 63.4804 272.067 59.687 276.314C55.987 280.457 50.9539 283.621 45.5813 285.073C43.9203 285.522 36.0939 285.874 37.4475 289.136C38.2337 291.03 43.4372 291.035 45.0502 291.106C48.5948 291.263 52.1345 290.403 55.3871 289.02C63.4432 285.594 69.5004 278.46 72.2093 270.204C73.7328 265.561 74.2061 260.574 73.512 255.733C73.1532 253.23 71.5569 242.633 67.2298 244.081C66.6401 244.278 65.9537 244.578 65.8516 245.202Z" fill="#F5E7DA"/>
</g>
<g opacity="0.44">
<path d="M38.9499 227.277C38.0021 226.134 35.7538 226.015 34.3675 225.945C32.5323 225.851 30.6429 226.115 28.8682 226.571C25.1521 227.525 21.8124 229.319 18.8397 231.721C12.9432 236.487 8.87911 243.286 8.16364 250.885C7.79852 254.762 8.29554 260.099 11.7705 262.542C12.2161 262.855 13.0052 262.552 13.0967 262.002C13.4225 260.04 13.1305 258.063 13.0598 256.094C12.987 254.075 13.092 251.984 13.5138 250.007C14.3375 246.148 16.1034 242.574 18.6166 239.537C21.1226 236.508 24.2079 234.014 27.5433 231.952C29.2842 230.875 31.1331 230.024 33.0974 229.443C34.0717 229.155 35.079 228.921 36.0846 228.772C36.994 228.638 38.03 228.717 38.8275 228.229C39.184 228.01 39.1998 227.578 38.9499 227.277Z" fill="url(#paint3_linear_11436_60)"/>
</g>
<defs>
<linearGradient id="paint0_linear_11436_60" x1="40" y1="247.547" x2="40" y2="297.066" gradientUnits="userSpaceOnUse">
<stop stop-color="#EDD6C2"/>
<stop offset="1" stop-color="#CA996D"/>
</linearGradient>
<linearGradient id="paint1_linear_11436_60" x1="40" y1="247.547" x2="40" y2="297.066" gradientUnits="userSpaceOnUse">
<stop stop-color="#EDD6C2"/>
<stop offset="1" stop-color="#CA996D"/>
</linearGradient>
<linearGradient id="paint2_linear_11436_60" x1="75.5" y1="232.547" x2="-20.5" y2="282.047" gradientUnits="userSpaceOnUse">
<stop stop-color="white"/>
<stop offset="1" stop-color="white"/>
</linearGradient>
<linearGradient id="paint3_linear_11436_60" x1="23.5908" y1="225.926" x2="23.5908" y2="262.668" gradientUnits="userSpaceOnUse">
<stop stop-color="#F5E7DA"/>
<stop offset="1" stop-color="#F5E7DA" stop-opacity="0.8"/>
</linearGradient>
</defs>
</svg>
